<?xml version="1.0" encoding="UTF-8" standalone="no"?>
<svg
   height="50"
   width="50"
   version="1.1"
   id="svg188"
   sodipodi:docname="app-icon.svg"
   inkscape:version="1.2.1 (9c6d41e410, 2022-07-14)"
   xmlns:inkscape="http://www.inkscape.org/namespaces/inkscape"
   xmlns:sodipodi="http://sodipodi.sourceforge.net/DTD/sodipodi-0.dtd"
   xmlns="http://www.w3.org/2000/svg"
   xmlns:svg="http://www.w3.org/2000/svg">
  <defs
     id="defs192" />
  <sodipodi:namedview
     id="namedview190"
     pagecolor="#ffffff"
     bordercolor="#666666"
     borderopacity="1.0"
     inkscape:showpageshadow="2"
     inkscape:pageopacity="0.0"
     inkscape:pagecheckerboard="0"
     inkscape:deskcolor="#d1d1d1"
     showgrid="false"
     inkscape:zoom="14.75"
     inkscape:cx="21.016949"
     inkscape:cy="23.118644"
     inkscape:window-width="2560"
     inkscape:window-height="1377"
     inkscape:window-x="2552"
     inkscape:window-y="-8"
     inkscape:window-maximized="1"
     inkscape:current-layer="g186" />
  <g
     style="mix-blend-mode:normal;fill:#4a90d9;fill-opacity:1"
     id="g186"
     transform="translate(14.322578,16.79251)">
    <g
       id="g9342"
       transform="translate(3.9861819,1.8728795)">
      <path
         style="fill:#4a90d9;fill-opacity:1;stroke:none;stroke-width:0.138157px;stroke-linecap:butt;stroke-linejoin:miter;stroke-opacity:1"
         d="M 24.065968,-4.7298782 V 16.157557 L 5.9769841,26.601109 V 5.7139648 Z M 5.9769841,5.7138428 V -15.173458 L -12.112003,-4.7298782 Z"
         id="path182" />
      <path
         style="fill:#4a90d9;fill-opacity:1;fill-rule:nonzero;stroke:none;stroke-width:11.4583;stroke-linecap:round;stroke-linejoin:round;stroke-dasharray:none;stroke-opacity:1"
         d="m -11.302933,-7.7495212 a 6.0330739,6.0330739 0 0 0 -3.019644,5.230217 V 13.947012 a 6.0330739,6.0330739 0 0 0 3.019644,5.230366 l 14.2601441,8.232993 a 6.0330739,6.0330739 0 0 0 6.039449,0 L 23.25676,19.177378 a 6.0330739,6.0330739 0 0 0 3.01966,-5.230366 V -2.5190232 A 6.0330739,6.0330739 0 0 0 23.25676,-7.7493809 L 8.9966601,-15.98239 a 6.0330739,6.0330739 0 0 0 -6.039449,0 z M 6.7860601,-12.153814 21.046189,-3.9208062 a 1.624634,1.624634 0 0 1 0.809062,1.401502 V 13.947012 c 0,0.57557 -0.310687,1.113568 -0.809062,1.401487 L 6.7860601,23.581515 a 1.624634,1.624634 0 0 1 -1.618277,0 L -9.0923585,15.348499 a 1.624634,1.624634 0 0 1 -0.80907,-1.401487 V -2.5190232 c 0,-0.575719 0.3107261,-1.113858 0.80907,-1.401509 L 5.1677831,-12.153675 a 1.624634,1.624634 0 0 1 1.618277,0 z"
         id="path184" />
      <g
         id="g246"
         transform="matrix(2.449283,0,0,2.3604833,-6.5849039,-5.9455188)"
         style="fill:#1b1e54;fill-opacity:1">
        <path
           style="fill:#1b1e54;fill-opacity:1"
           d="M 8,2.019 V 0 L 4,3 8,6 V 4.027 C 10.25,4.276 12,6.183 12,8.5 12,10.985 9.985,13 7.5,13 5.015,13 3,10.985 3,8.5 3,8.331 3.01,8.164 3.027,8 H 1.019 C 1.007,8.165 1,8.332 1,8.5 1,12.09 3.91,15 7.5,15 11.09,15 14,12.09 14,8.5 14,5.078 11.356,2.274 8,2.019 Z"
           id="path244" />
      </g>
    </g>
  </g>
</svg>
